<svg width="200" height="163" viewBox="0 0 200 163" fill="none" xmlns="http://www.w3.org/2000/svg">
<path fill-rule="evenodd" clip-rule="evenodd" d="M196.869 41.6554C196.714 41.5426 196.346 41.5028 196.175 41.4688C195.463 41.3287 194.731 41.2677 194.006 41.2677C191.77 41.2712 189.498 41.4906 187.299 41.8704C185.903 42.1114 184.216 42.9231 182.827 42.4822C180.408 41.7144 177.963 41.7522 175.668 42.8484C173.569 43.8507 171.976 45.7545 171.047 47.8115C170.906 48.1222 170.337 49.2652 170.176 50.0356C170.107 50.1931 170.041 50.3515 169.982 50.5125C169.812 50.9697 169.66 51.4347 169.519 51.9008C169.459 52.0996 169.308 52.5384 169.487 52.6233C169.2 53.1543 168.945 53.7012 168.733 54.2659C168.115 55.9084 167.44 57.7103 167.223 59.4511C167.142 60.0957 167.139 60.744 167.214 61.3898C167.251 61.7092 167.236 62.3508 167.452 62.5938C167.911 63.1088 168.147 62.3878 168.095 62.0442C167.7 59.4269 168.464 56.9689 169.368 54.5085C169.954 52.9177 170.915 51.462 171.992 50.144C172.864 49.0769 173.798 48.2367 174.993 47.5293C176.454 46.6642 178.017 45.965 179.564 45.2634C180.582 44.8019 181.601 44.3526 182.648 43.955C182.88 43.8664 183.246 43.6394 183.504 43.6386C184.05 43.6368 184.823 44.0393 185.35 44.189C187.083 44.6819 188.839 45.3128 190.63 45.5645C191.779 45.7261 192.855 45.5441 193.93 45.1614C194.04 45.1225 194.224 45.0219 194.449 44.8783C195.247 44.5714 196.002 44.1852 196.659 43.6278C197.037 43.307 197.381 42.892 197.695 42.5121C197.788 42.3988 197.83 42.2686 197.831 42.1448C197.902 42.1079 197.949 42.0643 197.96 42.0137C198.038 41.64 197.325 41.6333 196.869 41.6554Z" fill="#89C5CC"/>
<path fill-rule="evenodd" clip-rule="evenodd" d="M15.2466 72.8116C14.8079 73.1668 14.3777 73.5295 13.958 73.907C13.6381 74.1947 13.0721 74.5391 12.9572 74.975C12.8379 75.4281 13.2147 75.8521 13.5124 76.1258C15.0867 77.5743 16.8594 78.5534 19.0408 78.7164C22.3997 78.9672 25.3229 78.1093 28.2373 76.4217C30.2845 75.236 31.6405 73.4824 31.9366 71.1144C34.3746 72.1275 36.7324 73.5242 38.7362 75.2383C39.7249 76.084 40.5764 77.0209 41.364 78.0596C41.8685 78.7251 42.3564 79.4011 42.8092 80.1032C43.006 80.4081 43.2062 80.9492 43.5311 81.1247C43.9127 81.3311 44.3739 81.0076 44.355 80.5836C44.339 80.2305 43.958 79.821 43.7796 79.5325C43.4837 79.0532 43.1832 78.5769 42.8668 78.111C42.3547 77.3563 41.8255 76.6126 41.2483 75.9064C39.951 74.3196 38.3006 73.0093 36.5897 71.8915C33.3075 69.7474 29.7053 68.3966 25.7116 68.2821C23.2559 68.2117 21.1901 69.0508 19.0901 70.3036C17.7826 71.0836 16.433 71.8508 15.2466 72.8116Z" fill="#DDE3E9"/>
<path fill-rule="evenodd" clip-rule="evenodd" d="M47.1011 62.4406C44.542 59.8053 41.9741 57.2028 39.115 54.882C37.43 53.5146 35.6543 52.2711 33.9152 50.9746C34.1158 51.1504 34.3125 51.3312 34.5046 51.5166C33.9617 51.1481 33.2512 50.9397 32.6757 50.5986C32.0338 50.2181 31.42 49.7828 30.8181 49.3443C29.6432 48.4881 28.4859 47.6157 27.2781 46.8043C25.9325 45.9001 24.538 45.0649 23.1696 44.1948C22.0081 43.4566 20.8325 42.6484 19.59 42.0448C18.9128 41.7158 18.234 41.3261 17.554 40.9829C17.3264 40.8681 15.0173 39.4101 15.0231 39.4054C15.1507 39.3095 16.3128 39.8553 16.4924 39.9288C17.0174 40.1433 17.5194 40.3996 18.0241 40.6554C17.7471 40.109 17.5278 39.5347 17.4084 38.9305C17.3716 38.744 17.0761 37.3862 17.2273 37.2723C17.3028 37.2153 18.0395 39.6449 18.0772 39.8783C18.1079 40.068 18.1034 40.3412 18.1655 40.5208C18.2658 40.8111 18.2607 40.7234 18.4816 40.887C18.8864 41.1866 19.4238 41.3738 19.862 41.624C20.0983 41.7559 20.8298 42.279 21.2704 42.4281C22.6036 43.0756 23.955 44.0719 25.2217 44.899C24.8893 44.2741 24.6362 43.6208 24.4518 42.9361C24.4079 42.7737 23.9344 41.3157 24.0493 41.229C24.1785 41.1314 25.0807 43.3587 25.1341 43.5694C25.2334 43.9611 25.254 44.3968 25.3783 44.7781C25.5146 45.1963 25.9404 45.3445 26.324 45.5883C27.7355 46.4852 29.0988 47.4381 30.4392 48.4349C31.9018 45.8336 30.2154 42.6926 28.7943 40.5101C27.7695 38.9369 26.3906 37.5885 24.9342 36.4112C22.9907 34.8398 20.7671 33.5846 18.5462 32.4364C15.9585 31.0987 13.1616 30.2696 10.2538 29.8868C8.73301 29.6863 7.17716 29.6921 5.64098 29.7563C4.89058 29.7874 4.17029 29.8868 3.45115 30.1318C3.12703 30.2422 2.81377 30.3815 2.5085 30.5372C2.27656 30.6555 1.7155 30.7805 1.58213 30.9569C0.484382 32.3858 -0.0772074 33.8096 0.00855386 35.605C0.0896362 37.3045 0.626407 39.0049 1.35487 40.5211C2.16613 42.209 3.2095 43.7411 4.5741 45.0271C5.61521 46.0083 6.77916 46.8621 7.93544 47.7049C12.048 50.702 17.262 53.3089 22.5885 52.639C24.3127 52.4225 25.9526 51.8194 27.485 50.9999C27.8463 50.8069 28.2052 50.6116 28.5461 50.3838C28.776 50.2301 29.3903 49.5375 29.6214 49.5122C29.9384 49.4779 30.6208 50.1222 30.9181 50.3184C33.1774 51.8099 35.3773 53.3821 37.5311 55.0177C39.8229 56.7579 42.002 58.6167 44.1171 60.5627C45.0165 61.3904 45.9105 62.2201 46.7838 63.0756C46.9872 63.2747 47.4845 64.0077 47.8532 64.0408C48.0863 64.062 48.2435 63.8626 48.2104 63.647C48.1526 63.2718 47.3633 62.7106 47.1011 62.4406Z" fill="#C1DEE2"/>
<path fill-rule="evenodd" clip-rule="evenodd" d="M194.182 52.2124C193.191 51.9958 192.096 52.0124 191.087 52.0301C185.671 52.104 180.353 54.6678 176.893 58.7643C173.946 62.2517 173.136 66.5878 172.554 70.9709C172.497 71.4059 172.472 71.8383 172.439 72.2746C172.432 72.3681 172.422 72.4515 172.411 72.5303C172.182 72.7349 172.062 72.9735 172.197 73.2356C171.693 74.3391 171.266 75.4705 170.9 76.6376C169.823 80.0727 168.727 83.5732 169.402 87.1853C169.56 85.1975 169.892 83.1649 170.288 81.2096C170.311 81.0974 170.336 80.9861 170.361 80.8751C170.364 80.8635 170.367 80.8516 170.369 80.8399C170.51 80.2413 170.692 79.6606 170.914 79.089C170.917 79.0826 170.919 79.0765 170.921 79.0704C170.951 78.9951 170.982 78.9201 171.012 78.8454C171.076 78.6905 171.141 78.5359 171.211 78.3822C171.234 78.3296 171.257 78.2767 171.278 78.2235C171.601 77.4313 171.738 76.5385 172.028 75.719C172.097 75.5327 172.169 75.347 172.245 75.1621C172.25 75.1514 172.254 75.1406 172.259 75.1299C172.464 74.6326 172.69 74.1418 172.93 73.6559C173.06 73.5579 173.13 73.3153 173.242 73.0947C173.265 73.0511 173.447 72.7613 173.501 72.5942C173.642 72.3214 173.782 72.0485 173.924 71.7759C173.92 71.7776 173.916 71.7791 173.912 71.7808C174.054 71.519 174.196 71.2586 174.338 70.999C174.369 70.9421 174.4 70.8851 174.432 70.8279C174.483 70.7369 174.534 70.6459 174.584 70.5553C175.058 69.7064 175.561 68.8746 176.084 68.053C176.27 67.7598 176.715 67.3393 176.801 67.0103C176.804 66.9978 176.805 66.9865 176.807 66.9749C177.94 65.3829 179.245 63.9147 180.81 62.7513C180.621 62.9559 180.218 63.6496 180.112 63.7871C179.787 64.2076 179.434 64.5991 179.079 64.9955C178.444 65.7054 177.825 66.4378 177.274 67.2123C176.267 68.6288 175.398 70.1193 174.577 71.6401C174.569 71.6489 174.56 71.6573 174.553 71.6666C174.14 72.1755 173.88 72.9444 173.583 73.5265C174.759 72.9819 176.06 72.6271 177.266 72.1435C178.47 71.6614 179.641 71.1243 180.771 70.4939C182.273 69.6558 183.832 68.7099 185.251 67.6392C186.878 66.6302 188.245 65.2413 189.452 63.7839C190.879 62.0594 192.187 60.32 192.996 58.2261C193.394 57.1973 193.707 56.1244 193.892 55.0389C193.9 54.9918 193.91 54.9404 193.922 54.8872C194.112 54.5123 194.281 54.129 194.423 53.7369C194.649 53.115 195.183 52.4309 194.182 52.2124Z" fill="#69A1AC"/>
<path fill-rule="evenodd" clip-rule="evenodd" d="M26.2129 59.4978C25.9026 59.1616 25.5538 58.8582 25.1442 58.6417C25.0407 58.5871 24.2695 58.2209 24.2193 58.3011C24.1023 58.4882 26.1196 59.3903 26.2129 59.4978ZM29.8695 57.2517C29.8669 57.2659 30.1342 57.7196 30.2072 57.8591C30.3621 58.1558 30.5051 58.458 30.6396 58.7611C30.4405 58.2261 30.2357 57.7297 29.8695 57.2517ZM11.1697 60.9451C10.9122 61.028 10.6026 60.701 10.9366 60.6205C11.2069 60.556 11.1936 60.5409 11.315 60.3229C11.4136 60.1462 11.4743 59.9306 11.5607 59.7452C11.7442 59.3517 11.9523 58.9762 12.2077 58.6245C12.7551 57.8707 13.422 57.2211 14.1701 56.6736C15.4755 55.7187 16.9393 54.8453 18.492 54.4068C20.9609 53.7093 23.7708 53.6663 26.2434 54.1499C27.775 54.4492 29.1743 54.97 30.1912 56.2031C30.6995 56.8192 31.0985 57.5411 31.2729 58.336C31.3185 58.5437 31.3098 58.7748 31.3667 58.9782C31.4545 59.2912 31.4159 59.2078 31.7817 59.2685C32.1811 59.3351 32.5801 59.4028 32.9791 59.472C34.0239 59.6527 35.0747 59.8446 36.0928 60.1378C36.4279 60.2343 36.7554 60.3523 37.0756 60.4891C37.3177 60.5926 38.2817 60.9178 38.3988 61.2322C38.5938 61.7557 37.9405 61.5185 37.7374 61.4043C37.5595 61.3046 37.377 61.2113 37.1919 61.1256C36.7254 60.91 36.2395 60.7429 35.7426 60.61C35.2055 60.4665 34.6577 60.3592 34.1116 60.2517C33.6028 60.1517 33.0919 60.0608 32.5801 59.9736C32.2959 59.9253 32.0116 59.8783 31.7271 59.8315C31.6298 59.8152 31.4586 59.7312 31.4714 59.8576C30.8733 59.7423 30.2267 59.7588 29.6175 59.7271C28.8715 59.6882 28.1226 59.6562 27.374 59.6795C26.834 59.6963 26.2937 59.7318 25.7564 59.8044C25.4425 59.8469 25.1336 59.9088 24.8257 59.9872C24.6565 60.0305 23.9894 60.1221 23.8973 60.2694C23.9368 60.2061 24.6731 60.2677 24.7668 60.2639C25.1416 60.25 25.5134 60.2128 25.8869 60.1712C26.58 60.0936 27.2731 60.0532 27.9683 60.059C27.9656 60.1811 27.4908 60.3985 27.3748 60.4793C27.115 60.6609 26.866 60.8585 26.6337 61.0756C26.2248 61.4578 25.7349 61.9312 25.4521 62.3843C25.5355 62.2506 25.9467 62.0771 26.0926 61.9751C26.3266 61.8117 26.5559 61.6374 26.7727 61.4511C26.9726 61.279 27.1595 61.093 27.3431 60.9033C27.5268 60.7135 27.7759 60.3186 28.0174 60.1921C28.0319 60.1843 28.1371 60.2674 28.1967 60.2392C28.2571 60.2107 28.3321 60.0683 28.3472 60.0625C28.5719 59.9759 28.9985 60.0837 29.2348 60.0948C29.8471 60.123 30.4591 60.1599 31.0709 60.1936C31.2607 60.204 31.4217 60.1607 31.4935 60.3005C31.5696 60.4499 31.4298 60.842 31.39 61.0044C31.2424 61.6077 30.9805 62.1486 30.5678 62.6162C29.7954 63.4918 28.8424 64.0754 27.7663 64.466C23.6441 65.9615 19.2585 66.5604 15.1375 65.0048C13.4315 64.3605 10.8621 63.2096 11.1697 60.9451Z" fill="#89C5CC"/>
<g opacity="0.6">
<path fill-rule="evenodd" clip-rule="evenodd" d="M199.916 131.403C202.72 150.388 134.709 162.771 76.1701 154.129C17.631 145.487 -9.22385 111.74 18.71 93.759C46.6439 75.7774 197.111 112.419 199.916 131.403Z" fill="#DDE3E9"/>
</g>
<path d="M80.2656 6.97482H38.7073C37.4232 6.97482 36.3823 8.01573 36.3823 9.29976V92.4164C36.3823 93.7004 37.4232 94.7413 38.7073 94.7413H80.2656C81.5496 94.7413 82.5905 93.7004 82.5905 92.4164V9.29976C82.5905 8.01573 81.5496 6.97482 80.2656 6.97482Z" fill="#F2F2F2"/>
<path fill-rule="evenodd" clip-rule="evenodd" d="M59.3412 89.2196C61.7487 89.2196 63.7005 87.2678 63.7005 84.8604C63.7005 82.4529 61.7487 80.5011 59.3412 80.5011C56.9337 80.5011 54.9819 82.4529 54.9819 84.8604C54.9819 87.2678 56.9337 89.2196 59.3412 89.2196Z" fill="white"/>
<path fill-rule="evenodd" clip-rule="evenodd" d="M55.5632 12.7872C55.8843 12.7872 56.1444 12.5269 56.1444 12.2059C56.1444 11.8849 55.8843 11.6247 55.5632 11.6247C55.242 11.6247 54.9819 11.8849 54.9819 12.2059C54.9819 12.5269 55.242 12.7872 55.5632 12.7872Z" fill="white"/>
<path d="M63.1191 11.6247H58.1786C57.8576 11.6247 57.5974 11.8849 57.5974 12.2059C57.5974 12.5269 57.8576 12.7872 58.1786 12.7872H63.1191C63.4402 12.7872 63.7004 12.5269 63.7004 12.2059C63.7004 11.8849 63.4402 11.6247 63.1191 11.6247Z" fill="white"/>
<path d="M77.3594 15.1121H41.6134C40.9714 15.1121 40.4509 15.6326 40.4509 16.2746V29.643C40.4509 30.285 40.9714 30.8055 41.6134 30.8055H77.3594C78.0014 30.8055 78.5218 30.285 78.5218 29.643V16.2746C78.5218 15.6326 78.0014 15.1121 77.3594 15.1121Z" fill="white"/>
<path d="M72.1281 19.8201H52.6568C52.1753 19.8201 51.7849 20.2105 51.7849 20.692V21.3023C51.7849 21.7838 52.1753 22.1741 52.6568 22.1741H72.1281C72.6097 22.1741 73 21.7838 73 21.3023V20.692C73 20.2105 72.6097 19.8201 72.1281 19.8201Z" fill="#DDE3E9"/>
<path d="M65.1533 23.7435H52.6568C52.1753 23.7435 51.7849 24.1338 51.7849 24.6153V25.2256C51.7849 25.7071 52.1753 26.0975 52.6568 26.0975H65.1533C65.6348 26.0975 66.0252 25.7071 66.0252 25.2256V24.6153C66.0252 24.1338 65.6348 23.7435 65.1533 23.7435Z" fill="#DDE3E9"/>
<path fill-rule="evenodd" clip-rule="evenodd" d="M46.5538 26.4462C48.4797 26.4462 50.0412 24.8847 50.0412 22.9588C50.0412 21.0329 48.4797 19.4714 46.5538 19.4714C44.6279 19.4714 43.0664 21.0329 43.0664 22.9588C43.0664 24.8847 44.6279 26.4462 46.5538 26.4462Z" fill="#C5CFD6"/>
<path d="M77.3594 33.1304H41.6134C40.9714 33.1304 40.4509 33.6509 40.4509 34.2929V44.1739C40.4509 44.8159 40.9714 45.3364 41.6134 45.3364H77.3594C78.0014 45.3364 78.5218 44.8159 78.5218 44.1739V34.2929C78.5218 33.6509 78.0014 33.1304 77.3594 33.1304Z" fill="white"/>
<path d="M72.1281 36.7922H52.6568C52.1753 36.7922 51.7849 37.1825 51.7849 37.6641V37.7512C51.7849 38.2328 52.1753 38.6231 52.6568 38.6231H72.1281C72.6097 38.6231 73 38.2328 73 37.7512V37.6641C73 37.1825 72.6097 36.7922 72.1281 36.7922Z" fill="#DDE3E9"/>
<path d="M65.1533 39.8437H52.6568C52.1753 39.8437 51.7849 40.234 51.7849 40.7155V40.8027C51.7849 41.2842 52.1753 41.6746 52.6568 41.6746H65.1533C65.6348 41.6746 66.0252 41.2842 66.0252 40.8027V40.7155C66.0252 40.234 65.6348 39.8437 65.1533 39.8437Z" fill="#DDE3E9"/>
<path fill-rule="evenodd" clip-rule="evenodd" d="M46.5538 42.7208C48.4797 42.7208 50.0412 41.1593 50.0412 39.2334C50.0412 37.3075 48.4797 35.746 46.5538 35.746C44.6279 35.746 43.0664 37.3075 43.0664 39.2334C43.0664 41.1593 44.6279 42.7208 46.5538 42.7208Z" fill="#C5CFD6"/>
<path d="M77.3594 47.6613H41.6134C40.9714 47.6613 40.4509 48.1817 40.4509 48.8238V58.7048C40.4509 59.3468 40.9714 59.8672 41.6134 59.8672H77.3594C78.0014 59.8672 78.5218 59.3468 78.5218 58.7048V48.8238C78.5218 48.1817 78.0014 47.6613 77.3594 47.6613Z" fill="white"/>
<path d="M72.1281 51.3231H52.6568C52.1753 51.3231 51.7849 51.7134 51.7849 52.1949V52.2821C51.7849 52.7636 52.1753 53.1539 52.6568 53.1539H72.1281C72.6097 53.1539 73 52.7636 73 52.2821V52.1949C73 51.7134 72.6097 51.3231 72.1281 51.3231Z" fill="#DDE3E9"/>
<path d="M65.1533 54.3745H52.6568C52.1753 54.3745 51.7849 54.7649 51.7849 55.2464V55.3336C51.7849 55.8151 52.1753 56.2054 52.6568 56.2054H65.1533C65.6348 56.2054 66.0252 55.8151 66.0252 55.3336V55.2464C66.0252 54.7649 65.6348 54.3745 65.1533 54.3745Z" fill="#DDE3E9"/>
<path fill-rule="evenodd" clip-rule="evenodd" d="M46.5538 57.2517C48.4797 57.2517 50.0412 55.6902 50.0412 53.7643C50.0412 51.8383 48.4797 50.2769 46.5538 50.2769C44.6279 50.2769 43.0664 51.8383 43.0664 53.7643C43.0664 55.6902 44.6279 57.2517 46.5538 57.2517Z" fill="#AFB9C5"/>
<path d="M77.3594 62.1922H41.6134C40.9714 62.1922 40.4509 62.7126 40.4509 63.3546V73.2356C40.4509 73.8777 40.9714 74.3981 41.6134 74.3981H77.3594C78.0014 74.3981 78.5218 73.8777 78.5218 73.2356V63.3546C78.5218 62.7126 78.0014 62.1922 77.3594 62.1922Z" fill="white"/>
<path d="M72.1281 65.8539H52.6568C52.1753 65.8539 51.7849 66.2443 51.7849 66.7258V66.813C51.7849 67.2945 52.1753 67.6848 52.6568 67.6848H72.1281C72.6097 67.6848 73 67.2945 73 66.813V66.7258C73 66.2443 72.6097 65.8539 72.1281 65.8539Z" fill="#DDE3E9"/>
<path d="M65.1533 68.9054H52.6568C52.1753 68.9054 51.7849 69.2958 51.7849 69.7773V69.8645C51.7849 70.346 52.1753 70.7363 52.6568 70.7363H65.1533C65.6348 70.7363 66.0252 70.346 66.0252 69.8645V69.7773C66.0252 69.2958 65.6348 68.9054 65.1533 68.9054Z" fill="#DDE3E9"/>
<path fill-rule="evenodd" clip-rule="evenodd" d="M46.5538 71.7826C48.4797 71.7826 50.0412 70.2211 50.0412 68.2952C50.0412 66.3692 48.4797 64.8077 46.5538 64.8077C44.6279 64.8077 43.0664 66.3692 43.0664 68.2952C43.0664 70.2211 44.6279 71.7826 46.5538 71.7826Z" fill="#C5CFD6"/>
<path fill-rule="evenodd" clip-rule="evenodd" d="M45.1415 77.8855C44.7564 77.8855 44.3725 77.8934 43.988 77.9131C43.6948 77.9285 43.247 77.8678 42.9991 78.0506C42.7413 78.2404 42.759 78.6286 42.7994 78.903C43.0121 80.3537 43.5315 81.64 44.6181 82.6679C46.2912 84.2503 48.209 85.0545 50.4784 85.4125C52.0727 85.6642 53.5444 85.3149 54.7179 84.1812C55.5755 85.7726 56.2259 87.5337 56.5523 89.3112C56.7133 90.1882 56.7624 91.0549 56.7342 91.9479C56.7159 92.5199 56.6845 93.0906 56.6232 93.66C56.5965 93.9073 56.4704 94.2816 56.5671 94.5155C56.6808 94.7899 57.0641 94.8166 57.2361 94.5824C57.3794 94.3877 57.3533 94.0049 57.3826 93.7745C57.4314 93.3914 57.4765 93.0081 57.5087 92.6233C57.5613 92.0005 57.6 91.376 57.5974 90.7506C57.5907 89.346 57.2783 87.936 56.8511 86.6026C56.0315 84.0443 54.7019 81.7708 52.6339 79.987C51.3622 78.8902 49.9068 78.4461 48.2558 78.2075C47.2276 78.059 46.1828 77.8855 45.1415 77.8855Z" fill="#89C5CC"/>
<path fill-rule="evenodd" clip-rule="evenodd" d="M51.079 88.0572C46.9235 88.0572 44.1248 91.4062 42.8017 94.8873C42.3027 96.1991 42.1858 97.64 41.9935 99.0175C41.9318 99.4598 41.9548 100.133 41.7752 100.527C41.7101 100.67 41.5607 100.721 41.6322 100.916C41.6755 101.034 41.7601 101.106 41.8877 101.129C42.1489 101.178 42.5186 100.893 42.7427 100.781C44.6015 99.8484 45.8226 98.4069 46.8189 96.6435C47.4367 95.5504 48.0633 94.4156 48.43 93.2156C48.6541 92.4824 48.7846 91.7105 48.8613 90.95C48.8916 90.6503 48.9206 90.3437 48.9189 90.0427C48.9171 89.7436 48.7779 89.5855 48.6779 89.3254C50.0645 88.8006 51.6297 88.6576 53.0343 89.2013C54.3334 89.7044 55.4124 90.6765 56.0166 91.898C56.1736 92.2153 56.2947 92.5501 56.3828 92.8919C56.4406 93.1156 56.4432 93.4057 56.5505 93.608C56.8097 94.0985 57.3555 93.7707 57.3032 93.3141C57.157 92.0409 56.4287 90.7625 55.4976 89.8773C54.3232 88.7607 52.7318 88.0572 51.079 88.0572Z" fill="#89C5CC"/>
<path d="M99.4462 14.5309H57.8879C56.6039 14.5309 55.563 15.5718 55.563 16.8558V99.9725C55.563 101.257 56.6039 102.297 57.8879 102.297H99.4462C100.73 102.297 101.771 101.257 101.771 99.9725V16.8558C101.771 15.5718 100.73 14.5309 99.4462 14.5309Z" fill="#DDE3E9"/>
<path fill-rule="evenodd" clip-rule="evenodd" d="M78.5219 96.7757C80.9293 96.7757 82.8811 94.8239 82.8811 92.4164C82.8811 90.0089 80.9293 88.0571 78.5219 88.0571C76.1144 88.0571 74.1626 90.0089 74.1626 92.4164C74.1626 94.8239 76.1144 96.7757 78.5219 96.7757Z" fill="white"/>
<path fill-rule="evenodd" clip-rule="evenodd" d="M74.7438 20.3433C75.065 20.3433 75.3251 20.0832 75.3251 19.762C75.3251 19.4409 75.065 19.1808 74.7438 19.1808C74.4227 19.1808 74.1626 19.4409 74.1626 19.762C74.1626 20.0832 74.4227 20.3433 74.7438 20.3433Z" fill="white"/>
<path d="M82.2998 19.1808H77.3593C77.0383 19.1808 76.7781 19.441 76.7781 19.762C76.7781 20.083 77.0383 20.3433 77.3593 20.3433H82.2998C82.6208 20.3433 82.881 20.083 82.881 19.762C82.881 19.441 82.6208 19.1808 82.2998 19.1808Z" fill="white"/>
<path d="M96.54 22.6682H60.7941C60.152 22.6682 59.6316 23.1886 59.6316 23.8307V37.1991C59.6316 37.8411 60.152 38.3615 60.7941 38.3615H96.54C97.182 38.3615 97.7025 37.8411 97.7025 37.1991V23.8307C97.7025 23.1886 97.182 22.6682 96.54 22.6682Z" fill="white"/>
<path d="M82.5903 27.3762H63.1189C62.6374 27.3762 62.2471 27.7665 62.2471 28.248V28.8583C62.2471 29.3399 62.6374 29.7302 63.1189 29.7302H82.5903C83.0718 29.7302 83.4622 29.3399 83.4622 28.8583V28.248C83.4622 27.7665 83.0718 27.3762 82.5903 27.3762Z" fill="#DDE3E9"/>
<path d="M75.6155 31.2995H63.1189C62.6374 31.2995 62.2471 31.6899 62.2471 32.1714V32.7817C62.2471 33.2632 62.6374 33.6535 63.1189 33.6535H75.6155C76.097 33.6535 76.4873 33.2632 76.4873 32.7817V32.1714C76.4873 31.6899 76.097 31.2995 75.6155 31.2995Z" fill="#DDE3E9"/>
<path fill-rule="evenodd" clip-rule="evenodd" d="M93.6339 32.5492C94.7575 32.5492 95.6683 31.6384 95.6683 30.5149C95.6683 29.3913 94.7575 28.4805 93.6339 28.4805C92.5104 28.4805 91.5996 29.3913 91.5996 30.5149C91.5996 31.6384 92.5104 32.5492 93.6339 32.5492Z" fill="#DDE3E9"/>
<path fill-rule="evenodd" clip-rule="evenodd" d="M93.6338 31.3867C94.1154 31.3867 94.5057 30.9964 94.5057 30.5149C94.5057 30.0333 94.1154 29.643 93.6338 29.643C93.1523 29.643 92.762 30.0333 92.762 30.5149C92.762 30.9964 93.1523 31.3867 93.6338 31.3867Z" fill="#F2F2F2"/>
<path d="M96.54 40.6865H60.7941C60.152 40.6865 59.6316 41.2069 59.6316 41.849V51.73C59.6316 52.372 60.152 52.8924 60.7941 52.8924H96.54C97.182 52.8924 97.7025 52.372 97.7025 51.73V41.849C97.7025 41.2069 97.182 40.6865 96.54 40.6865Z" fill="white"/>
<path d="M91.3088 44.3483H71.8374C71.3559 44.3483 70.9656 44.7386 70.9656 45.2201V45.3073C70.9656 45.7888 71.3559 46.1792 71.8374 46.1792H91.3088C91.7903 46.1792 92.1807 45.7888 92.1807 45.3073V45.2201C92.1807 44.7386 91.7903 44.3483 91.3088 44.3483Z" fill="#DDE3E9"/>
<path d="M84.334 47.3997H71.8374C71.3559 47.3997 70.9656 47.7901 70.9656 48.2716V48.3588C70.9656 48.8403 71.3559 49.2306 71.8374 49.2306H84.334C84.8155 49.2306 85.2058 48.8403 85.2058 48.3588V48.2716C85.2058 47.7901 84.8155 47.3997 84.334 47.3997Z" fill="#DDE3E9"/>
<path fill-rule="evenodd" clip-rule="evenodd" d="M65.7345 50.2769C67.6604 50.2769 69.2219 48.7154 69.2219 46.7894C69.2219 44.8635 67.6604 43.302 65.7345 43.302C63.8086 43.302 62.2471 44.8635 62.2471 46.7894C62.2471 48.7154 63.8086 50.2769 65.7345 50.2769Z" fill="#C5CFD6"/>
<path d="M96.54 55.2173H60.7941C60.152 55.2173 59.6316 55.7378 59.6316 56.3798V66.2608C59.6316 66.9028 60.152 67.4233 60.7941 67.4233H96.54C97.182 67.4233 97.7025 66.9028 97.7025 66.2608V56.3798C97.7025 55.7378 97.182 55.2173 96.54 55.2173Z" fill="white"/>
<path d="M82.5903 58.8791H63.1189C62.6374 58.8791 62.2471 59.2695 62.2471 59.751V59.8382C62.2471 60.3197 62.6374 60.71 63.1189 60.71H82.5903C83.0718 60.71 83.4622 60.3197 83.4622 59.8382V59.751C83.4622 59.2695 83.0718 58.8791 82.5903 58.8791Z" fill="#DDE3E9"/>
<path d="M75.6155 61.9306H63.1189C62.6374 61.9306 62.2471 62.3209 62.2471 62.8025V62.8896C62.2471 63.3711 62.6374 63.7615 63.1189 63.7615H75.6155C76.097 63.7615 76.4873 63.3711 76.4873 62.8896V62.8025C76.4873 62.3209 76.097 61.9306 75.6155 61.9306Z" fill="#AFB9C5"/>
<path fill-rule="evenodd" clip-rule="evenodd" d="M93.6339 63.3547C94.7575 63.3547 95.6683 62.4439 95.6683 61.3203C95.6683 60.1968 94.7575 59.286 93.6339 59.286C92.5104 59.286 91.5996 60.1968 91.5996 61.3203C91.5996 62.4439 92.5104 63.3547 93.6339 63.3547Z" fill="#DDE3E9"/>
<path fill-rule="evenodd" clip-rule="evenodd" d="M93.6338 62.1922C94.1154 62.1922 94.5057 61.8019 94.5057 61.3203C94.5057 60.8388 94.1154 60.4485 93.6338 60.4485C93.1523 60.4485 92.762 60.8388 92.762 61.3203C92.762 61.8019 93.1523 62.1922 93.6338 62.1922Z" fill="#F2F2F2"/>
<path d="M96.54 69.7482H60.7941C60.152 69.7482 59.6316 70.2687 59.6316 70.9107V80.7917C59.6316 81.4337 60.152 81.9542 60.7941 81.9542H96.54C97.182 81.9542 97.7025 81.4337 97.7025 80.7917V70.9107C97.7025 70.2687 97.182 69.7482 96.54 69.7482Z" fill="white"/>
<path d="M91.3088 73.41H71.8374C71.3559 73.41 70.9656 73.8003 70.9656 74.2819V74.369C70.9656 74.8505 71.3559 75.2409 71.8374 75.2409H91.3088C91.7903 75.2409 92.1807 74.8505 92.1807 74.369V74.2819C92.1807 73.8003 91.7903 73.41 91.3088 73.41Z" fill="#DDE3E9"/>
<path d="M84.334 76.4615H71.8374C71.3559 76.4615 70.9656 76.8518 70.9656 77.3333V77.4205C70.9656 77.902 71.3559 78.2924 71.8374 78.2924H84.334C84.8155 78.2924 85.2058 77.902 85.2058 77.4205V77.3333C85.2058 76.8518 84.8155 76.4615 84.334 76.4615Z" fill="#DDE3E9"/>
<path fill-rule="evenodd" clip-rule="evenodd" d="M65.7345 79.3386C67.6604 79.3386 69.2219 77.7771 69.2219 75.8512C69.2219 73.9253 67.6604 72.3638 65.7345 72.3638C63.8086 72.3638 62.2471 73.9253 62.2471 75.8512C62.2471 77.7771 63.8086 79.3386 65.7345 79.3386Z" fill="#C5CFD6"/>
<path d="M169.776 21.7963H77.0688C75.7848 21.7963 74.7439 22.8372 74.7439 24.1213V120.025C74.7439 121.309 75.7848 122.35 77.0688 122.35H169.776C171.06 122.35 172.101 121.309 172.101 120.025V24.1213C172.101 22.8372 171.06 21.7963 169.776 21.7963Z" fill="#F2F2F2"/>
<path d="M165.126 34.2929H149.433C148.149 34.2929 147.108 35.3338 147.108 36.6178V55.508C147.108 56.792 148.149 57.8329 149.433 57.8329H165.126C166.41 57.8329 167.451 56.792 167.451 55.508V36.6178C167.451 35.3338 166.41 34.2929 165.126 34.2929Z" fill="white"/>
<path fill-rule="evenodd" clip-rule="evenodd" d="M157.279 47.9519C159.847 47.9519 161.929 45.8702 161.929 43.302C161.929 40.7339 159.847 38.6522 157.279 38.6522C154.711 38.6522 152.629 40.7339 152.629 43.302C152.629 45.8702 154.711 47.9519 157.279 47.9519Z" fill="#DDE3E9"/>
<path d="M163.673 49.1144H150.886C150.404 49.1144 150.014 49.5047 150.014 49.9862C150.014 50.4677 150.404 50.8581 150.886 50.8581H163.673C164.154 50.8581 164.545 50.4677 164.545 49.9862C164.545 49.5047 164.154 49.1144 163.673 49.1144Z" fill="#DDE3E9"/>
<path d="M161.348 52.0206H153.211C152.729 52.0206 152.339 52.4109 152.339 52.8924C152.339 53.3739 152.729 53.7643 153.211 53.7643H161.348C161.83 53.7643 162.22 53.3739 162.22 52.8924C162.22 52.4109 161.83 52.0206 161.348 52.0206Z" fill="#DDE3E9"/>
<path d="M74.7439 24.1213C74.7439 22.8373 75.7849 21.7963 77.0688 21.7963H169.776C171.06 21.7963 172.101 22.8373 172.101 24.1213V29.643H74.7439V24.1213Z" fill="#C5CFD6"/>
<path fill-rule="evenodd" clip-rule="evenodd" d="M78.5218 27.0275C79.1638 27.0275 79.6843 26.507 79.6843 25.865C79.6843 25.223 79.1638 24.7025 78.5218 24.7025C77.8799 24.7025 77.3594 25.223 77.3594 25.865C77.3594 26.507 77.8799 27.0275 78.5218 27.0275Z" fill="#F2F2F2"/>
<path fill-rule="evenodd" clip-rule="evenodd" d="M82.0092 27.0275C82.6511 27.0275 83.1716 26.507 83.1716 25.865C83.1716 25.223 82.6511 24.7025 82.0092 24.7025C81.3672 24.7025 80.8467 25.223 80.8467 25.865C80.8467 26.507 81.3672 27.0275 82.0092 27.0275Z" fill="#F2F2F2"/>
<path fill-rule="evenodd" clip-rule="evenodd" d="M85.4967 27.0275C86.1387 27.0275 86.6592 26.507 86.6592 25.865C86.6592 25.223 86.1387 24.7025 85.4967 24.7025C84.8547 24.7025 84.3342 25.223 84.3342 25.865C84.3342 26.507 84.8547 27.0275 85.4967 27.0275Z" fill="#F2F2F2"/>
<path d="M165.126 60.1578H149.433C148.149 60.1578 147.108 61.1987 147.108 62.4828V114.213C147.108 115.497 148.149 116.538 149.433 116.538H165.126C166.41 116.538 167.451 115.497 167.451 114.213V62.4828C167.451 61.1987 166.41 60.1578 165.126 60.1578Z" fill="white"/>
<path d="M161.057 65.3889H153.501C152.859 65.3889 152.339 65.9094 152.339 66.5514V71.7825C152.339 72.4245 152.859 72.945 153.501 72.945H161.057C161.699 72.945 162.22 72.4245 162.22 71.7825V66.5514C162.22 65.9094 161.699 65.3889 161.057 65.3889Z" fill="#DDE3E9"/>
<path d="M161.057 75.27H153.501C152.859 75.27 152.339 75.7904 152.339 76.4324V81.3729C152.339 82.0149 152.859 82.5354 153.501 82.5354H161.057C161.699 82.5354 162.22 82.0149 162.22 81.3729V76.4324C162.22 75.7904 161.699 75.27 161.057 75.27Z" fill="#AFB9C5"/>
<path d="M161.057 84.8603H153.501C152.859 84.8603 152.339 85.3808 152.339 86.0228V90.9633C152.339 91.6053 152.859 92.1258 153.501 92.1258H161.057C161.699 92.1258 162.22 91.6053 162.22 90.9633V86.0228C162.22 85.3808 161.699 84.8603 161.057 84.8603Z" fill="#DDE3E9"/>
<path d="M161.057 104.041H153.501C152.859 104.041 152.339 104.562 152.339 105.204V110.144C152.339 110.786 152.859 111.307 153.501 111.307H161.057C161.699 111.307 162.22 110.786 162.22 110.144V105.204C162.22 104.562 161.699 104.041 161.057 104.041Z" fill="#DDE3E9"/>
<path d="M161.057 94.4507H153.501C152.859 94.4507 152.339 94.9712 152.339 95.6132V100.554C152.339 101.196 152.859 101.716 153.501 101.716H161.057C161.699 101.716 162.22 101.196 162.22 100.554V95.6132C162.22 94.9712 161.699 94.4507 161.057 94.4507Z" fill="#C5CFD6"/>
<path d="M143.62 34.5835H80.5563C79.9143 34.5835 79.3938 35.104 79.3938 35.746V47.0801C79.3938 47.7221 79.9143 48.2425 80.5563 48.2425H143.62C144.262 48.2425 144.783 47.7221 144.783 47.0801V35.746C144.783 35.104 144.262 34.5835 143.62 34.5835Z" fill="white"/>
<path d="M129.671 38.6812H82.8811C82.3996 38.6812 82.0093 39.0716 82.0093 39.5531V39.8582C82.0093 40.3397 82.3996 40.7301 82.8811 40.7301H129.671C130.152 40.7301 130.542 40.3397 130.542 39.8582V39.5531C130.542 39.0716 130.152 38.6812 129.671 38.6812Z" fill="#DDE3E9"/>
<path d="M113.714 42.096H82.8811C82.3996 42.096 82.0093 42.4863 82.0093 42.9678V43.273C82.0093 43.7545 82.3996 44.1448 82.8811 44.1448H113.714C114.196 44.1448 114.586 43.7545 114.586 43.273V42.9678C114.586 42.4863 114.196 42.096 113.714 42.096Z" fill="#DDE3E9"/>
<path fill-rule="evenodd" clip-rule="evenodd" d="M137.795 43.4473C138.918 43.4473 139.829 42.5365 139.829 41.413C139.829 40.2895 138.918 39.3787 137.795 39.3787C136.671 39.3787 135.76 40.2895 135.76 41.413C135.76 42.5365 136.671 43.4473 137.795 43.4473Z" fill="#DDE3E9"/>
<path fill-rule="evenodd" clip-rule="evenodd" d="M137.794 42.2849C138.276 42.2849 138.666 41.8946 138.666 41.413C138.666 40.9315 138.276 40.5412 137.794 40.5412C137.313 40.5412 136.923 40.9315 136.923 41.413C136.923 41.8946 137.313 42.2849 137.794 42.2849Z" fill="#F2F2F2"/>
<path d="M143.62 50.5675H80.5563C79.9143 50.5675 79.3938 51.0879 79.3938 51.7299V60.7391C79.3938 61.3811 79.9143 61.9016 80.5563 61.9016H143.62C144.262 61.9016 144.783 61.3811 144.783 60.7391V51.7299C144.783 51.0879 144.262 50.5675 143.62 50.5675Z" fill="white"/>
<path d="M129.692 53.9677H82.8593C82.3899 53.9677 82.0093 54.3483 82.0093 54.8177C82.0093 55.2872 82.3899 55.6678 82.8593 55.6678H129.692C130.162 55.6678 130.542 55.2872 130.542 54.8177C130.542 54.3483 130.162 53.9677 129.692 53.9677Z" fill="#DDE3E9"/>
<path d="M113.736 56.8012H82.8593C82.3899 56.8012 82.0093 57.1818 82.0093 57.6513C82.0093 58.1207 82.3899 58.5013 82.8593 58.5013H113.736C114.206 58.5013 114.586 58.1207 114.586 57.6513C114.586 57.1818 114.206 56.8012 113.736 56.8012Z" fill="#DDE3E9"/>
<path fill-rule="evenodd" clip-rule="evenodd" d="M137.795 58.2688C138.918 58.2688 139.829 57.358 139.829 56.2345C139.829 55.111 138.918 54.2002 137.795 54.2002C136.671 54.2002 135.76 55.111 135.76 56.2345C135.76 57.358 136.671 58.2688 137.795 58.2688Z" fill="#DDE3E9"/>
<path fill-rule="evenodd" clip-rule="evenodd" d="M137.794 57.1064C138.276 57.1064 138.666 56.7161 138.666 56.2345C138.666 55.753 138.276 55.3627 137.794 55.3627C137.313 55.3627 136.923 55.753 136.923 56.2345C136.923 56.7161 137.313 57.1064 137.794 57.1064Z" fill="#F2F2F2"/>
<path d="M143.62 64.2265H80.5563C79.9143 64.2265 79.3938 64.747 79.3938 65.389V74.3981C79.3938 75.0401 79.9143 75.5606 80.5563 75.5606H143.62C144.262 75.5606 144.783 75.0401 144.783 74.3981V65.389C144.783 64.747 144.262 64.2265 143.62 64.2265Z" fill="white"/>
<path d="M129.692 67.6267H82.8593C82.3899 67.6267 82.0093 68.0073 82.0093 68.4768C82.0093 68.9463 82.3899 69.3268 82.8593 69.3268H129.692C130.162 69.3268 130.542 68.9463 130.542 68.4768C130.542 68.0073 130.162 67.6267 129.692 67.6267Z" fill="#DDE3E9"/>
<path d="M113.736 70.4603H82.8593C82.3899 70.4603 82.0093 70.8408 82.0093 71.3103C82.0093 71.7798 82.3899 72.1604 82.8593 72.1604H113.736C114.206 72.1604 114.586 71.7798 114.586 71.3103C114.586 70.8408 114.206 70.4603 113.736 70.4603Z" fill="#DDE3E9"/>
<path fill-rule="evenodd" clip-rule="evenodd" d="M137.795 71.9279C138.918 71.9279 139.829 71.0171 139.829 69.8935C139.829 68.77 138.918 67.8592 137.795 67.8592C136.671 67.8592 135.76 68.77 135.76 69.8935C135.76 71.0171 136.671 71.9279 137.795 71.9279Z" fill="#DDE3E9"/>
<path fill-rule="evenodd" clip-rule="evenodd" d="M137.794 70.7654C138.276 70.7654 138.666 70.3751 138.666 69.8936C138.666 69.412 138.276 69.0217 137.794 69.0217C137.313 69.0217 136.923 69.412 136.923 69.8936C136.923 70.3751 137.313 70.7654 137.794 70.7654Z" fill="#AFB9C5"/>
<path d="M143.62 105.204H80.5563C79.9143 105.204 79.3938 105.724 79.3938 106.366V115.375C79.3938 116.017 79.9143 116.538 80.5563 116.538H143.62C144.262 116.538 144.783 116.017 144.783 115.375V106.366C144.783 105.724 144.262 105.204 143.62 105.204Z" fill="white"/>
<path d="M129.692 108.604H82.8593C82.3899 108.604 82.0093 108.984 82.0093 109.454C82.0093 109.923 82.3899 110.304 82.8593 110.304H129.692C130.162 110.304 130.542 109.923 130.542 109.454C130.542 108.984 130.162 108.604 129.692 108.604Z" fill="#DDE3E9"/>
<path d="M113.736 111.437H82.8593C82.3899 111.437 82.0093 111.818 82.0093 112.287C82.0093 112.757 82.3899 113.137 82.8593 113.137H113.736C114.206 113.137 114.586 112.757 114.586 112.287C114.586 111.818 114.206 111.437 113.736 111.437Z" fill="#DDE3E9"/>
<path fill-rule="evenodd" clip-rule="evenodd" d="M137.795 112.905C138.918 112.905 139.829 111.994 139.829 110.871C139.829 109.747 138.918 108.836 137.795 108.836C136.671 108.836 135.76 109.747 135.76 110.871C135.76 111.994 136.671 112.905 137.795 112.905Z" fill="#DDE3E9"/>
<path fill-rule="evenodd" clip-rule="evenodd" d="M137.794 111.742C138.276 111.742 138.666 111.352 138.666 110.871C138.666 110.389 138.276 109.999 137.794 109.999C137.313 109.999 136.923 110.389 136.923 110.871C136.923 111.352 137.313 111.742 137.794 111.742Z" fill="#F2F2F2"/>
<path d="M143.62 91.5446H80.5563C79.9143 91.5446 79.3938 92.065 79.3938 92.707V101.716C79.3938 102.358 79.9143 102.879 80.5563 102.879H143.62C144.262 102.879 144.783 102.358 144.783 101.716V92.707C144.783 92.065 144.262 91.5446 143.62 91.5446Z" fill="white"/>
<path d="M129.692 94.9448H82.8593C82.3899 94.9448 82.0093 95.3254 82.0093 95.7948C82.0093 96.2643 82.3899 96.6449 82.8593 96.6449H129.692C130.162 96.6449 130.542 96.2643 130.542 95.7948C130.542 95.3254 130.162 94.9448 129.692 94.9448Z" fill="#DDE3E9"/>
<path d="M113.736 97.7783H82.8593C82.3899 97.7783 82.0093 98.1589 82.0093 98.6284C82.0093 99.0978 82.3899 99.4784 82.8593 99.4784H113.736C114.206 99.4784 114.586 99.0978 114.586 98.6284C114.586 98.1589 114.206 97.7783 113.736 97.7783Z" fill="#DDE3E9"/>
<path fill-rule="evenodd" clip-rule="evenodd" d="M137.795 99.2459C138.918 99.2459 139.829 98.3351 139.829 97.2116C139.829 96.0881 138.918 95.1773 137.795 95.1773C136.671 95.1773 135.76 96.0881 135.76 97.2116C135.76 98.3351 136.671 99.2459 137.795 99.2459Z" fill="#DDE3E9"/>
<path fill-rule="evenodd" clip-rule="evenodd" d="M137.794 98.0835C138.276 98.0835 138.666 97.6932 138.666 97.2116C138.666 96.7301 138.276 96.3398 137.794 96.3398C137.313 96.3398 136.923 96.7301 136.923 97.2116C136.923 97.6932 137.313 98.0835 137.794 98.0835Z" fill="#F2F2F2"/>
<path d="M143.62 77.8855H80.5563C79.9143 77.8855 79.3938 78.406 79.3938 79.048V88.0571C79.3938 88.6991 79.9143 89.2196 80.5563 89.2196H143.62C144.262 89.2196 144.783 88.6991 144.783 88.0571V79.048C144.783 78.406 144.262 77.8855 143.62 77.8855Z" fill="white"/>
<path d="M129.692 81.2857H82.8593C82.3899 81.2857 82.0093 81.6663 82.0093 82.1358C82.0093 82.6053 82.3899 82.9858 82.8593 82.9858H129.692C130.162 82.9858 130.542 82.6053 130.542 82.1358C130.542 81.6663 130.162 81.2857 129.692 81.2857Z" fill="#DDE3E9"/>
<path d="M113.736 84.1193H82.8593C82.3899 84.1193 82.0093 84.4999 82.0093 84.9693C82.0093 85.4388 82.3899 85.8194 82.8593 85.8194H113.736C114.206 85.8194 114.586 85.4388 114.586 84.9693C114.586 84.4999 114.206 84.1193 113.736 84.1193Z" fill="#DDE3E9"/>
<path fill-rule="evenodd" clip-rule="evenodd" d="M137.795 85.5869C138.918 85.5869 139.829 84.6761 139.829 83.5526C139.829 82.429 138.918 81.5182 137.795 81.5182C136.671 81.5182 135.76 82.429 135.76 83.5526C135.76 84.6761 136.671 85.5869 137.795 85.5869Z" fill="#DDE3E9"/>
<path fill-rule="evenodd" clip-rule="evenodd" d="M137.794 84.4244C138.276 84.4244 138.666 84.0341 138.666 83.5526C138.666 83.071 138.276 82.6807 137.794 82.6807C137.313 82.6807 136.923 83.071 136.923 83.5526C136.923 84.0341 137.313 84.4244 137.794 84.4244Z" fill="#F2F2F2"/>
<path fill-rule="evenodd" clip-rule="evenodd" d="M196.218 71.3106C195.072 70.5332 193.547 70.3295 192.175 70.3295C186.818 70.3295 181.782 72.3173 177.431 75.2793C175.047 76.9021 172.915 78.9689 171.032 81.1207C169.945 82.3631 168.976 83.7066 168.29 85.2012C167.827 86.21 167.509 87.2611 167.294 88.3451C167.032 89.6663 166.823 91.0142 166.729 92.3574C166.692 92.8863 166.384 95.6928 167.264 95.7405C167.259 95.8097 167.257 95.8756 167.263 95.9346C165.353 98.9204 164.174 102.419 163.079 105.737C162.128 108.624 161.279 111.535 160.729 114.522C160.004 118.453 159.528 122.445 159.301 126.433C159.253 127.29 159.219 128.148 159.191 129.006C159.166 129.738 159.142 130.47 159.117 131.203C159.091 132.023 158.946 132.967 159.077 133.783C159.19 134.493 159.805 134.386 159.832 133.679C159.865 132.825 159.86 131.97 159.897 131.116C159.947 129.982 159.998 128.849 160.054 127.715C160.44 119.842 161.888 112.084 164.562 104.647C165.645 101.637 166.884 98.7882 168.478 96.0041C169.879 93.5562 171.565 91.1862 173.288 88.9793C174.962 86.8342 176.703 84.7392 178.754 82.9219C180.419 81.4473 182.251 80.1625 184.134 78.9672C186.524 77.449 188.911 75.9677 191.501 74.8024C192.847 74.1967 194.219 73.6544 195.576 73.0729C195.82 72.9686 196.082 72.8671 196.317 72.746C197.1 72.342 196.842 71.7337 196.218 71.3106Z" fill="#C1DEE2"/>
<path fill-rule="evenodd" clip-rule="evenodd" d="M174.663 98.81C176.836 98.81 178.77 99.0925 180.772 99.9559C182.5 100.701 184.075 101.688 185.605 102.762C187.756 104.273 189.45 106.031 190.636 108.361C191.344 109.753 191.864 111.722 191.388 113.241C190.828 115.028 189.289 116.52 187.262 116.205C186.008 116.01 184.86 115.18 183.907 114.4C182.767 113.465 181.855 112.342 181.102 111.094C179.873 109.059 179.151 106.759 178.107 104.632C177.612 103.623 177.133 102.606 176.54 101.647C176.246 101.172 175.934 100.702 175.488 100.349C175.25 100.16 174.245 99.833 174.629 99.409C168.994 99.4828 164.002 103.811 162.92 109.168C162.819 109.667 162.74 110.171 162.657 110.673C162.605 110.99 162.626 112.16 162.342 112.363C161.717 112.81 161.98 111.452 162.007 111.256C162.076 110.751 162.15 110.246 162.227 109.742C162.65 107 163.871 104.451 165.906 102.496C168.234 100.26 171.374 98.81 174.663 98.81Z" fill="#89C5CC"/>
<path fill-rule="evenodd" clip-rule="evenodd" d="M18.0554 92.0491C23.4802 101.15 29.7984 109.962 33.5927 119.913C33.4398 118.74 33.2777 117.568 33.096 116.398C32.1335 110.196 30.9367 104.039 29.6795 97.8902C29.0393 94.7594 28.3619 91.6396 27.6673 88.5204C27.2938 86.845 26.9248 85.1687 26.5435 83.495C26.451 83.0893 26.3717 82.3811 26.2563 81.6635C29.9437 93.764 33.4997 105.873 36.1007 118.265C36.4419 119.891 36.7325 121.514 36.9705 123.135C37.0519 122.765 37.1321 122.395 37.2196 122.027C38.2722 117.607 39.8508 113.223 41.7306 109.09C42.6292 107.114 43.6611 105.181 44.8765 103.38C45.6344 102.258 47.4217 100.923 48.1128 99.7731C44.3322 106.708 42.9669 115.384 40.7837 122.923C40.251 124.763 39.7148 126.6 39.1894 128.44C42.4815 121.838 47.5894 116.413 54.6912 114.062C46.0948 119.742 40.9386 129.689 37.464 139.863C37.4527 139.983 37.439 140.104 37.4271 140.225C38.4498 138.284 39.7375 136.529 41.483 135.3C45.2191 132.668 49.3633 133.435 52.9873 135.692C50.1431 133.884 45.0029 135.531 42.6097 137.368C40.8965 138.684 39.4324 140.448 38.1609 142.17C37.8563 142.583 37.4405 143.064 37.0013 143.578C36.3858 147.574 35.3826 151.543 33.9621 155.48C34.1966 154.35 34.0272 152.543 34.0923 151.7C34.0992 151.609 34.105 151.518 34.112 151.427C33.8961 152.289 33.6874 153.141 33.4866 153.98C33.8859 152.38 34.1027 150.709 34.2722 149.022C34.3157 148.297 34.3585 147.571 34.4032 146.846C34.389 145.47 34.3323 144.088 34.2364 142.704C33.8967 141.359 33.516 140.09 33.2018 139.035C32.0693 135.227 30.4084 131.58 28.3645 128.177C26.4996 125.072 24.2672 122.259 21.6901 119.716C20.3008 118.344 18.8469 117.039 17.4134 115.715C16.895 115.237 15.9685 114.06 15.1672 113.446C21.003 116.664 27.0096 120.144 31.2669 125.328C30.7676 123.412 30.2256 121.522 29.6522 119.671C26.7428 110.276 23.0695 100.54 18.0554 92.0491Z" fill="#DDE3E9"/>
<path fill-rule="evenodd" clip-rule="evenodd" d="M23.8857 143.565C23.8857 153.998 24.7119 162.455 35.8011 162.455C46.8902 162.455 47.7164 153.998 47.7164 143.565" fill="#C5CFD6"/>
<path d="M149.142 10.1716C149.142 9.69012 148.752 9.29977 148.27 9.29977C147.789 9.29977 147.398 9.69012 147.398 10.1716V15.6934C147.398 16.1749 147.789 16.5652 148.27 16.5652C148.752 16.5652 149.142 16.1749 149.142 15.6934V10.1716Z" fill="#DDE3E9"/>
<path d="M153.211 5.52172C153.211 5.04021 152.82 4.64987 152.339 4.64987C151.857 4.64987 151.467 5.04021 151.467 5.52172V15.6933C151.467 16.1749 151.857 16.5652 152.339 16.5652C152.82 16.5652 153.211 16.1749 153.211 15.6933V5.52172Z" fill="#DDE3E9"/>
<path d="M157.279 3.1968C157.279 2.71529 156.889 2.32495 156.407 2.32495C155.926 2.32495 155.535 2.71529 155.535 3.1968V15.6934C155.535 16.1749 155.926 16.5652 156.407 16.5652C156.889 16.5652 157.279 16.1749 157.279 15.6934V3.1968Z" fill="#DDE3E9"/>
<path d="M161.348 5.52172C161.348 5.04021 160.958 4.64987 160.476 4.64987C159.995 4.64987 159.604 5.04021 159.604 5.52172V15.6933C159.604 16.1749 159.995 16.5652 160.476 16.5652C160.958 16.5652 161.348 16.1749 161.348 15.6933V5.52172Z" fill="#DDE3E9"/>
<path d="M165.417 0.871853C165.417 0.390342 165.026 0 164.545 0C164.063 0 163.673 0.390342 163.673 0.871853V15.6934C163.673 16.1749 164.063 16.5652 164.545 16.5652C165.026 16.5652 165.417 16.1749 165.417 15.6934V0.871853Z" fill="#C5CFD6"/>
<path fill-rule="evenodd" clip-rule="evenodd" d="M4.41431 89.0034C4.41431 85.7662 7.03045 83.1166 10.2267 83.1166V89.0034L6.2545 93.2883C5.12458 92.2406 4.41431 90.7038 4.41431 89.0034Z" fill="#F2F2F2"/>
<path fill-rule="evenodd" clip-rule="evenodd" d="M10.0728 88.929H15.9425C15.9425 90.4463 15.3236 91.868 14.3451 92.9011C13.2689 94.0311 11.7363 94.7413 10.0728 94.7413C8.54058 94.7413 7.138 94.1284 6.06152 93.1595L10.0728 88.929Z" fill="#AFB9C5"/>
<path fill-rule="evenodd" clip-rule="evenodd" d="M16.039 88.929C16.039 85.7328 13.4229 83.1166 10.2267 83.1166V88.929H16.039ZM7.32048 83.1166L9.64542 88.3478L4.41431 86.0228C4.93161 84.6668 6.0932 83.6339 7.32048 83.1166Z" fill="#C5CFD6"/>
<path fill-rule="evenodd" clip-rule="evenodd" d="M193.538 91.5966C192.98 92.1894 192.189 92.5617 191.309 92.5617C189.619 92.5617 188.248 91.1955 188.248 89.5102C188.248 87.8249 189.619 86.4587 191.309 86.4587V80.7917C186.5 80.7917 182.563 84.7159 182.563 89.5102C182.563 94.3045 186.5 98.2287 191.309 98.2287C193.835 98.2287 196.119 97.1633 197.675 95.4685L193.538 91.5966Z" fill="#F2F2F2"/>
<path fill-rule="evenodd" clip-rule="evenodd" d="M191.281 80.7917V86.4587C192.967 86.4587 194.333 87.8249 194.333 89.5102H200C200 84.7159 196.076 80.7917 191.281 80.7917Z" fill="#AFB9C5"/>
<path fill-rule="evenodd" clip-rule="evenodd" d="M194.216 89.5102C194.216 90.5004 193.749 91.3803 193.025 91.9488L196.589 96.485C198.663 94.8611 200 92.3435 200 89.5102H194.216Z" fill="#C5CFD6"/>
<path fill-rule="evenodd" clip-rule="evenodd" d="M138.113 11.4805C137.684 11.935 137.075 12.2205 136.398 12.2205C135.098 12.2205 134.044 11.173 134.044 9.88098C134.044 8.58893 135.098 7.54151 136.398 7.54151V3.19678C132.699 3.19678 129.67 6.20534 129.67 9.88098C129.67 13.5566 132.699 16.5652 136.398 16.5652C138.342 16.5652 140.098 15.7483 141.295 14.4489L138.113 11.4805Z" fill="#F2F2F2"/>
<path fill-rule="evenodd" clip-rule="evenodd" d="M136.355 3.19678V7.54151C137.647 7.54151 138.694 8.58893 138.694 9.88098H143.039C143.039 6.20534 140.03 3.19678 136.355 3.19678Z" fill="#AFB9C5"/>
<path fill-rule="evenodd" clip-rule="evenodd" d="M138.701 9.88098C138.701 10.6236 138.351 11.2837 137.808 11.7099L140.48 15.1121C142.036 13.8941 143.039 12.006 143.039 9.88098H138.701Z" fill="#C5CFD6"/>
<path fill-rule="evenodd" clip-rule="evenodd" d="M32.3156 16.5612C32.3144 16.5641 32.3133 16.567 32.3115 16.5704C32.3133 16.5675 32.3156 16.5559 32.3156 16.5612Z" fill="#C5CFD6"/>
<path fill-rule="evenodd" clip-rule="evenodd" d="M32.3131 16.5655C32.3131 16.5661 32.3125 16.5673 32.3125 16.5684C32.3125 16.5655 32.3177 16.5568 32.3131 16.5655Z" fill="#C5CFD6"/>
<path fill-rule="evenodd" clip-rule="evenodd" d="M32.3332 16.5164C32.3291 16.528 32.3239 16.5391 32.3193 16.5507C32.3216 16.5449 32.3239 16.5402 32.3262 16.5344C32.2658 16.6855 32.3042 16.5873 32.3332 16.5164Z" fill="#C5CFD6"/>
<path fill-rule="evenodd" clip-rule="evenodd" d="M32.3201 16.5515C32.3178 16.5568 32.3155 16.5626 32.3132 16.5678C32.2963 16.6004 32.3201 16.5515 32.3201 16.5515Z" fill="#C5CFD6"/>
<path fill-rule="evenodd" clip-rule="evenodd" d="M32.3135 16.5651C32.3135 16.5649 32.3135 16.5649 32.3137 16.5646C32.3135 16.5649 32.3135 16.5649 32.3135 16.5651Z" fill="#C5CFD6"/>
<path fill-rule="evenodd" clip-rule="evenodd" d="M32.3107 16.5699C32.3072 16.5768 32.327 16.5431 32.3107 16.5699V16.5699Z" fill="#C5CFD6"/>
<path fill-rule="evenodd" clip-rule="evenodd" d="M32.313 16.5651L32.3135 16.5646C32.3132 16.5649 32.3132 16.5651 32.313 16.5651Z" fill="#C5CFD6"/>
<path d="M44.8102 1.45309H19.5265C18.8845 1.45309 18.364 1.97355 18.364 2.61556V18.5995C18.364 19.2415 18.8845 19.762 19.5265 19.762H44.8102C45.4522 19.762 45.9727 19.2415 45.9727 18.5995V2.61556C45.9727 1.97355 45.4522 1.45309 44.8102 1.45309Z" fill="#DDE3E9"/>
<path fill-rule="evenodd" clip-rule="evenodd" d="M28.8263 6.6842L20.689 19.762H36.9636L28.8263 6.6842Z" fill="#AFB9C5"/>
<path fill-rule="evenodd" clip-rule="evenodd" d="M36.8181 10.1716L29.698 19.762H43.9383L36.8181 10.1716Z" fill="#C5CFD6"/>
<path fill-rule="evenodd" clip-rule="evenodd" d="M39.8697 10.1716C41.3144 10.1716 42.4853 9.00062 42.4853 7.55608C42.4853 6.11154 41.3144 4.94052 39.8697 4.94052C38.425 4.94052 37.2542 6.11154 37.2542 7.55608C37.2542 9.00062 38.425 10.1716 39.8697 10.1716Z" fill="white"/>
<path fill-rule="evenodd" clip-rule="evenodd" d="M170.936 140.655C170.937 140.658 170.939 140.661 170.94 140.664C170.939 140.661 170.936 140.65 170.936 140.655Z" fill="#C5CFD6"/>
<path fill-rule="evenodd" clip-rule="evenodd" d="M170.939 140.659C170.939 140.66 170.94 140.661 170.94 140.662C170.94 140.659 170.934 140.651 170.939 140.659Z" fill="#C5CFD6"/>
<path fill-rule="evenodd" clip-rule="evenodd" d="M170.919 140.61C170.923 140.622 170.928 140.633 170.933 140.644C170.93 140.639 170.928 140.634 170.926 140.628C170.986 140.779 170.948 140.681 170.919 140.61Z" fill="#C5CFD6"/>
<path fill-rule="evenodd" clip-rule="evenodd" d="M170.932 140.645C170.934 140.65 170.937 140.656 170.939 140.662C170.956 140.694 170.932 140.645 170.932 140.645Z" fill="#C5CFD6"/>
<path fill-rule="evenodd" clip-rule="evenodd" d="M170.938 140.659C170.938 140.659 170.938 140.659 170.938 140.658C170.938 140.659 170.938 140.659 170.938 140.659Z" fill="#C5CFD6"/>
<path fill-rule="evenodd" clip-rule="evenodd" d="M170.941 140.664C170.945 140.671 170.925 140.637 170.941 140.664V140.664Z" fill="#C5CFD6"/>
<path fill-rule="evenodd" clip-rule="evenodd" d="M170.938 140.659L170.938 140.658C170.938 140.659 170.938 140.659 170.938 140.659Z" fill="#C5CFD6"/>
<path d="M151.467 118.281H190.41C191.052 118.281 191.572 118.802 191.572 119.444V144.437C191.572 145.079 191.052 145.599 190.41 145.599H151.467C150.825 145.599 150.305 145.079 150.305 144.437V119.444C150.305 118.802 150.825 118.281 151.467 118.281Z" fill="#DDE3E9"/>
<path fill-rule="evenodd" clip-rule="evenodd" d="M176.249 126.128L188.18 145.599H164.318L176.249 126.128Z" fill="#AFB9C5"/>
<path fill-rule="evenodd" clip-rule="evenodd" d="M163.947 131.344L174.495 145.599H153.399L163.947 131.344Z" fill="#C5CFD6"/>
<path fill-rule="evenodd" clip-rule="evenodd" d="M159.459 131.359C157.292 131.359 155.536 129.603 155.536 127.436C155.536 125.269 157.292 123.513 159.459 123.513C161.626 123.513 163.382 125.269 163.382 127.436C163.382 129.603 161.626 131.359 159.459 131.359Z" fill="white"/>
</svg>
