<svg width="18" height="16" viewBox="0 0 18 16" fill="none" xmlns="http://www.w3.org/2000/svg">
<path d="M15.6667 3.83333V2.16667C15.6667 1.2475 14.9192 0.5 14.0001 0.5H3.16675C1.78841 0.5 0.666748 1.62167 0.666748 3V13C0.666748 14.8342 2.16175 15.5 3.16675 15.5H15.6667C16.5859 15.5 17.3334 14.7525 17.3334 13.8333V5.5C17.3334 4.58083 16.5859 3.83333 15.6667 3.83333ZM14.0001 11.3333H12.3334V8H14.0001V11.3333ZM3.16675 3.83333C2.95218 3.82374 2.74959 3.73174 2.60114 3.57651C2.4527 3.42129 2.36986 3.21478 2.36986 3C2.36986 2.78522 2.4527 2.57871 2.60114 2.42349C2.74959 2.26826 2.95218 2.17626 3.16675 2.16667H14.0001V3.83333H3.16675Z" fill="#27643B"/>
</svg>
