<svg width="32" height="33" viewBox="0 0 32 33" fill="none" xmlns="http://www.w3.org/2000/svg">
<rect y="0.5" width="32" height="32" rx="16" fill="#BCFFDC"/>
<path d="M21.9401 10.44C22.2218 10.1718 22.5967 10.0235 22.9857 10.0264C23.3747 10.0294 23.7473 10.1833 24.025 10.4557C24.3026 10.7282 24.4636 11.0979 24.4738 11.4867C24.4841 11.8756 24.3429 12.2532 24.0801 12.54L16.1001 22.52C15.9629 22.6678 15.7972 22.7864 15.6131 22.8687C15.429 22.951 15.2302 22.9954 15.0286 22.9991C14.8269 23.0029 14.6266 22.9659 14.4396 22.8904C14.2526 22.815 14.0827 22.7026 13.9401 22.56L8.64807 17.268C8.5007 17.1306 8.38249 16.965 8.30051 16.781C8.21853 16.5971 8.17444 16.3984 8.17089 16.197C8.16733 15.9956 8.20438 15.7956 8.27983 15.6088C8.35527 15.422 8.46756 15.2523 8.60999 15.1099C8.75243 14.9675 8.9221 14.8552 9.10888 14.7797C9.29565 14.7043 9.49571 14.6672 9.69712 14.6708C9.89852 14.6743 10.0971 14.7184 10.2811 14.8004C10.4651 14.8824 10.6307 15.0006 10.7681 15.148L14.9561 19.334L21.9021 10.484C21.9146 10.4686 21.9279 10.4539 21.9421 10.44H21.9401Z" fill="#01575C"/>
</svg>
