<svg width="14" height="18" viewBox="0 0 14 18" fill="none" xmlns="http://www.w3.org/2000/svg">
<path fill-rule="evenodd" clip-rule="evenodd" d="M11.1666 0.666656C11.8296 0.666656 12.4655 0.930049 12.9344 1.39889C13.4032 1.86773 13.6666 2.50362 13.6666 3.16666V16.5C13.6665 16.6569 13.6221 16.8107 13.5384 16.9435C13.4548 17.0763 13.3354 17.1828 13.1939 17.2507C13.0524 17.3187 12.8946 17.3452 12.7386 17.3274C12.5827 17.3096 12.4349 17.2481 12.3124 17.15L10.7499 15.9L9.18742 17.15C9.02734 17.2782 8.82559 17.3429 8.62079 17.3317C8.41599 17.3205 8.22252 17.2341 8.07742 17.0892L6.99992 16.0117L5.92242 17.0892C5.77742 17.2342 5.58401 17.3208 5.3792 17.3321C5.1744 17.3435 4.97259 17.279 4.81242 17.1508L3.24992 15.9L1.68742 17.15C1.5649 17.2481 1.41716 17.3096 1.26122 17.3274C1.10528 17.3452 0.947475 17.3187 0.805976 17.2507C0.664477 17.1828 0.545036 17.0763 0.461404 16.9435C0.377772 16.8107 0.33335 16.6569 0.333252 16.5V3.16666C0.333252 2.50362 0.596644 1.86773 1.06549 1.39889C1.53433 0.930049 2.17021 0.666656 2.83325 0.666656H11.1666ZM6.99992 8.99999H4.49992C4.2789 8.99999 4.06694 9.08779 3.91066 9.24407C3.75438 9.40035 3.66659 9.61231 3.66659 9.83332C3.66659 10.0543 3.75438 10.2663 3.91066 10.4226C4.06694 10.5789 4.2789 10.6667 4.49992 10.6667H6.99992C7.22093 10.6667 7.43289 10.5789 7.58917 10.4226C7.74545 10.2663 7.83325 10.0543 7.83325 9.83332C7.83325 9.61231 7.74545 9.40035 7.58917 9.24407C7.43289 9.08779 7.22093 8.99999 6.99992 8.99999ZM9.49992 5.66666H4.49992C4.28752 5.66689 4.08322 5.74822 3.92878 5.89403C3.77433 6.03984 3.68139 6.23912 3.66894 6.45115C3.65649 6.66319 3.72548 6.87197 3.86181 7.03485C3.99813 7.19773 4.19151 7.3024 4.40242 7.32749L4.49992 7.33332H9.49992C9.71232 7.33309 9.91661 7.25176 10.0711 7.10595C10.2255 6.96014 10.3184 6.76086 10.3309 6.54883C10.3433 6.33679 10.2744 6.12801 10.138 5.96513C10.0017 5.80225 9.80833 5.69758 9.59742 5.67249L9.49992 5.66666Z" fill="#27643B"/>
</svg>
