<svg width="16" height="20" viewBox="0 0 16 20" fill="none" xmlns="http://www.w3.org/2000/svg">
<path fill-rule="evenodd" clip-rule="evenodd" d="M13 0C13.7956 0 14.5587 0.316071 15.1213 0.87868C15.6839 1.44129 16 2.20435 16 3V19C15.9999 19.1883 15.9466 19.3728 15.8462 19.5322C15.7459 19.6916 15.6025 19.8194 15.4327 19.9009C15.2629 19.9824 15.0736 20.0143 14.8864 19.9929C14.6993 19.9715 14.522 19.8977 14.375 19.78L12.5 18.28L10.625 19.78C10.4329 19.9339 10.1908 20.0115 9.94505 19.9981C9.69929 19.9846 9.46712 19.881 9.293 19.707L8 18.414L6.707 19.707C6.533 19.8811 6.30091 19.9849 6.05514 19.9986C5.80938 20.0122 5.56721 19.9348 5.375 19.781L3.5 18.28L1.625 19.78C1.47797 19.8977 1.30069 19.9715 1.11356 19.9929C0.926432 20.0143 0.737068 19.9824 0.567269 19.9009C0.39747 19.8194 0.254141 19.6916 0.153782 19.5322C0.0534242 19.3728 0.00011764 19.1883 0 19V3C0 2.20435 0.316071 1.44129 0.87868 0.87868C1.44129 0.316071 2.20435 0 3 0H13ZM8 10H5C4.73478 10 4.48043 10.1054 4.29289 10.2929C4.10536 10.4804 4 10.7348 4 11C4 11.2652 4.10536 11.5196 4.29289 11.7071C4.48043 11.8946 4.73478 12 5 12H8C8.26522 12 8.51957 11.8946 8.70711 11.7071C8.89464 11.5196 9 11.2652 9 11C9 10.7348 8.89464 10.4804 8.70711 10.2929C8.51957 10.1054 8.26522 10 8 10ZM11 6H5C4.74512 6.00028 4.49997 6.09788 4.31463 6.27285C4.1293 6.44782 4.01776 6.68695 4.00283 6.94139C3.98789 7.19584 4.07067 7.44638 4.23426 7.64183C4.39785 7.83729 4.6299 7.9629 4.883 7.993L5 8H11C11.2549 7.99972 11.5 7.90212 11.6854 7.72715C11.8707 7.55218 11.9822 7.31305 11.9972 7.05861C12.0121 6.80416 11.9293 6.55362 11.7657 6.35817C11.6021 6.16271 11.3701 6.0371 11.117 6.007L11 6Z" fill="#A4A4A4"/>
</svg>
