<svg width="22" height="22" viewBox="0 0 22 22" fill="none" xmlns="http://www.w3.org/2000/svg">
<path d="M21.1836 10.8359L11.5297 1.18906C11.4602 1.11941 11.3776 1.06416 11.2867 1.02646C11.1958 0.988758 11.0984 0.969353 11 0.969353C10.9016 0.969353 10.8042 0.988758 10.7133 1.02646C10.6224 1.06416 10.5398 1.11941 10.4703 1.18906L0.816418 10.8359C0.535168 11.1172 0.375793 11.4992 0.375793 11.8977C0.375793 12.725 1.04845 13.3977 1.87579 13.3977H2.89298V20.2812C2.89298 20.6961 3.22814 21.0312 3.64298 21.0312H9.50001V15.7812H12.125V21.0312H18.357C18.7719 21.0312 19.107 20.6961 19.107 20.2812V13.3977H20.1242C20.5227 13.3977 20.9047 13.2406 21.1859 12.957C21.7695 12.3711 21.7695 11.4219 21.1836 10.8359Z" fill="#A4A4A4"/>
</svg>
