<svg width="24" height="24" viewBox="0 0 24 24" fill="none" xmlns="http://www.w3.org/2000/svg">
<rect width="24" height="24" rx="12" fill="#FFF0BB"/>
<path d="M11.0073 5.59984C10.987 5.39758 11.0093 5.19332 11.0728 5.00023C11.1363 4.80713 11.2395 4.62948 11.3759 4.47874C11.5123 4.32801 11.6787 4.20752 11.8645 4.12506C12.0503 4.0426 12.2513 4 12.4546 4C12.6578 4 12.8588 4.0426 13.0446 4.12506C13.2304 4.20752 13.3969 4.32801 13.5332 4.47874C13.6696 4.62948 13.7729 4.80713 13.8363 5.00023C13.8998 5.19332 13.9222 5.39758 13.9019 5.59984L13.3375 14.8363C13.3157 15.0553 13.2132 15.2584 13.0501 15.4062C12.8869 15.5539 12.6747 15.6357 12.4546 15.6357C12.2345 15.6357 12.0222 15.5539 11.859 15.4062C11.6959 15.2584 11.5934 15.0553 11.5716 14.8363L11.0073 5.59984ZM11 18.5454C11 18.1597 11.1532 17.7897 11.426 17.5169C11.6988 17.2441 12.0688 17.0909 12.4546 17.0909C12.8403 17.0909 13.2103 17.2441 13.4831 17.5169C13.7559 17.7897 13.9091 18.1597 13.9091 18.5454C13.9091 18.9312 13.7559 19.3012 13.4831 19.574C13.2103 19.8468 12.8403 20 12.4546 20C12.0688 20 11.6988 19.8468 11.426 19.574C11.1532 19.3012 11 18.9312 11 18.5454Z" fill="#FFC700"/>
</svg>
